# xmcd
#
# Track frame offsets:
#	150
#	10121
#	21440
#	34663
#	46886
#	58359
#	70745
#	81168
#	93568
#	102866
#	114457
#	126692
#	139576
#	152581
#	163079
#	173877
#	200242
#	209968
#	218024
#	229023
#	242688
#
# Disc length: 3373
#
# Revision: 4
# Processed by: cddbd v1.5.1PL0 Copyright (c) Steve Scherf et al.
# Submitted via: CDmax 1.8
# Normalized: r3:DSETVAR1,TDELIM( - )
#
DISCID=340d2b15
DTITLE=Various Artist - Kick Up Yer Boot Heels #2
DYEAR=2003
DGENRE=Country
TTITLE0=Hank Williams - Honky Tonky Blues
TTITLE1=Johhny Cash - Big River
TTITLE2=Joe and Rose Lee Maphis - Dim Lights, Thick Smoke
TTITLE3=Hank Thomas - Wild Side of Life
TTITLE4=Kitty Wells - It Wasn't God Who Made Honky-Tonk Angels
TTITLE5=Gene Autry - Deep in the Heart of Texas
TTITLE6=Jimmy Day - Roadside Rag
TTITLE7=Hank Williams - Move It On Over
TTITLE8=Herb Steiner - Joaquin Special
TTITLE9=Hank Williams - Baby, We're Really in Love
TTITLE10=Hank Garland - 7th and Union
TTITLE11=Johnny Cash - Folsom Prison Blues
TTITLE12=Gene Autry - The Yellow Rose of Texas
TTITLE13=Flying Burrito Brothers - Close Up the Honky-Tonks
TTITLE14=Herb Steiner - Coconut Grove
TTITLE15=Freakwater - Good for Nothing
TTITLE16=Loretta Lynn - You Ain't Woman Enough
TTITLE17=James Burton and Ralph Mooney - Corn Pickin'
TTITLE18=Jimmy Dean - What the World Needs Now
TTITLE19=Jerry Byrd - Steelin' the Blues
TTITLE20=Justin Tubb - One for You, One for Me
EXTD=
EXTT0=
EXTT1=
EXTT2=
EXTT3=
EXTT4=
EXTT5=
EXTT6=
EXTT7=
EXTT8=
EXTT9=
EXTT10=
EXTT11=
EXTT12=
EXTT13=
EXTT14=
EXTT15=
EXTT16=
EXTT17=
EXTT18=
EXTT19=
EXTT20=
PLAYORDER=
